<?xml version="1.0" encoding="UTF-8" standalone="no"?>
<!DOCTYPE svg PUBLIC "-//W3C//DTD SVG 1.1//EN" "http://www.w3.org/Graphics/SVG/1.1/DTD/svg11.dtd">
<svg version="1.1" xmlns="http://www.w3.org/2000/svg" xmlns:xlink="http://www.w3.org/1999/xlink" preserveAspectRatio="xMidYMid meet" viewBox="0 0 495 393" width="495" height="393"><defs><path d="M391.66 218.68C391.66 293.74 327.36 354.68 248.16 354.68C168.96 354.68 104.66 293.74 104.66 218.68C104.66 143.62 231.96 319.68 311.16 319.68C390.36 319.68 391.66 143.62 391.66 218.68Z" id="aUglXz9v9"></path><path d="M391.66 176.68C391.66 251.74 360.36 62.68 281.16 62.68C201.96 62.68 104.66 251.74 104.66 176.68C104.66 101.62 168.96 40.68 248.16 40.68C327.36 40.68 391.66 101.62 391.66 176.68Z" id="a2cyPvc7Vl"></path><path d="" id="isGs4RC99"></path><path d="" id="e13pGoniPZ"></path><path d="" id="b1hL7gk5Ap"></path><path d="M234.47 160.05C234.47 166.66 229.34 172.03 223.01 172.03C216.69 172.03 211.55 166.66 211.55 160.05C211.55 153.44 216.69 148.07 223.01 148.07C229.34 148.07 234.47 153.44 234.47 160.05Z" id="g1y7NC9fzz"></path><path d="M187.64 129.32L194.66 141.16L181.12 141.44L167.59 141.73L174.1 129.61L180.62 117.49L187.64 129.32Z" id="g6Vz02LDHo"></path><path d="M181.13 244.94L380.08 244.94L380.08 252.23L181.13 252.23L181.13 244.94Z" id="g1pigiCcRL"></path><path d="M276.36 208.06C276.36 214.67 271.22 220.04 264.9 220.04C258.58 220.04 253.44 214.67 253.44 208.06C253.44 201.45 258.58 196.08 264.9 196.08C271.22 196.08 276.36 201.45 276.36 208.06Z" id="d2lL3zVsjm"></path><path d="M321.37 200.25C321.37 206.86 316.24 212.22 309.92 212.22C303.59 212.22 298.46 206.86 298.46 200.25C298.46 193.63 303.59 188.27 309.92 188.27C316.24 188.27 321.37 193.63 321.37 200.25Z" id="a1qpcPhtlK"></path><path d="M184.77 128.99L184.76 252.23L177.47 252.23L177.49 128.99L184.77 128.99Z" id="aJws1ncwX"></path><path d="M226.66 172.54L226.65 249.1L219.36 249.1L219.37 172.54L226.66 172.54Z" id="cdvMA3ZPc"></path><path d="M268.54 220.04L268.54 248.58L261.26 248.58L261.26 228.34L261.26 220.04L268.54 220.04Z" id="bjWgAznvh"></path><path d="M313.56 212.23L313.56 245.98L306.27 245.98L306.27 212.23L313.56 212.23Z" id="j1T3V3RwS"></path><path d="" id="je2uxSpcb"></path><path d="" id="eOAKMocz"></path><path d="M344.67 229.1C336.4 220.32 331.23 214.83 329.16 212.64C319.77 202.67 305.2 199.55 292.55 204.8C287.02 207.1 289.9 205.9 283.98 208.36C272.87 212.97 260.04 209.15 253.26 199.21C247.21 190.33 242.03 182.73 236.32 174.34C228.2 162.43 213.92 156.29 199.69 158.57C198.47 158.77 195.4 159.26 190.5 160.05" id="beUtocehc"></path><path d="M377.41 241.85L389.24 248.89L377.49 255.61L365.74 262.34L365.66 248.58L365.58 234.82L377.41 241.85Z" id="e3sTP7rojp"></path></defs><g><g><g><use xlink:href="#aUglXz9v9" opacity="1" fill="#371634" fill-opacity="1"></use></g><g><use xlink:href="#a2cyPvc7Vl" opacity="1" fill="#d48523" fill-opacity="1"></use></g><g><g><use xlink:href="#isGs4RC99" opacity="1" fill-opacity="0" stroke="#e47a07" stroke-width="1" stroke-opacity="1"></use></g></g><g><g><use xlink:href="#e13pGoniPZ" opacity="1" fill-opacity="0" stroke="#e47a07" stroke-width="1" stroke-opacity="1"></use></g></g><g><g><use xlink:href="#b1hL7gk5Ap" opacity="1" fill-opacity="0" stroke="#e47a07" stroke-width="1" stroke-opacity="1"></use></g></g><g><use xlink:href="#g1y7NC9fzz" opacity="1" fill="#d22020" fill-opacity="1"></use></g><g><use xlink:href="#g6Vz02LDHo" opacity="1" fill="#000000" fill-opacity="1"></use></g><g><use xlink:href="#g1pigiCcRL" opacity="1" fill="#000000" fill-opacity="1"></use></g><g><use xlink:href="#d2lL3zVsjm" opacity="1" fill="#d22020" fill-opacity="1"></use></g><g><use xlink:href="#a1qpcPhtlK" opacity="1" fill="#d22020" fill-opacity="1"></use></g><g><use xlink:href="#aJws1ncwX" opacity="1" fill="#000000" fill-opacity="1"></use></g><g><use xlink:href="#cdvMA3ZPc" opacity="1" fill="#000000" fill-opacity="1"></use></g><g><use xlink:href="#bjWgAznvh" opacity="1" fill="#000000" fill-opacity="1"></use></g><g><use xlink:href="#j1T3V3RwS" opacity="1" fill="#000000" fill-opacity="1"></use></g><g><g><use xlink:href="#je2uxSpcb" opacity="1" fill-opacity="0" stroke="#000000" stroke-width="1" stroke-opacity="1"></use></g></g><g><g><use xlink:href="#eOAKMocz" opacity="1" fill-opacity="0" stroke="#000000" stroke-width="2" stroke-opacity="1"></use></g></g><g><g><use xlink:href="#beUtocehc" opacity="1" fill-opacity="0" stroke="#000000" stroke-width="5" stroke-opacity="1"></use></g></g><g><use xlink:href="#e3sTP7rojp" opacity="1" fill="#000000" fill-opacity="1"></use></g></g></g></svg>